<svg id="Layer_1" data-name="Layer 1" xmlns="http://www.w3.org/2000/svg" viewBox="0 0 124.88 111.07"><defs><style>.cls-1{fill-rule:evenodd;}.cls-2{fill:#231f20;}</style></defs><path class="cls-1" d="M48.17,47.62a2.62,2.62,0,0,0,.54,1.79A1.82,1.82,0,0,0,50.1,50a1.76,1.76,0,0,0,1.37-.61A2.68,2.68,0,0,0,52,47.6a2.58,2.58,0,0,0-.52-1.77,1.76,1.76,0,0,0-1.38-.59,1.8,1.8,0,0,0-1.4.59A2.66,2.66,0,0,0,48.17,47.62Zm-1.44.05a4.46,4.46,0,0,1,.32-1.78,3,3,0,0,1,.64-1,2.55,2.55,0,0,1,.9-.62A3.84,3.84,0,0,1,50.08,44a3.26,3.26,0,0,1,2.45,1,3.64,3.64,0,0,1,.92,2.65,3.6,3.6,0,0,1-.91,2.62,3.22,3.22,0,0,1-2.44,1,3.26,3.26,0,0,1-2.46-.94A3.63,3.63,0,0,1,46.73,47.67Z"/><path d="M43.36,70.49a.66.66,0,0,1-.63-.45L38.09,56.45A.65.65,0,1,1,39.33,56L44,69.62a.65.65,0,0,1-.41.83A.52.52,0,0,1,43.36,70.49Z"/><path d="M43.36,70.49a.66.66,0,0,1,0-1.32L57.7,69a.66.66,0,0,1,.66.64.65.65,0,0,1-.64.67l-14.35.22Z"/><path d="M57.71,70.27a.69.69,0,0,1-.2,0,.64.64,0,0,1-.43-.82L61.32,55.7a.65.65,0,1,1,1.25.39L58.34,69.81A.66.66,0,0,1,57.71,70.27Z"/><path d="M61.94,56.55a.63.63,0,0,1-.37-.12l-7.34-5.16a.66.66,0,0,1-.16-.92.67.67,0,0,1,.91-.16l7.34,5.17a.65.65,0,0,1,.16.91A.66.66,0,0,1,61.94,56.55Z"/><path d="M38.71,56.9a.67.67,0,0,1-.53-.26.65.65,0,0,1,.13-.92l7-5.29a.66.66,0,1,1,.79,1l-7,5.29A.63.63,0,0,1,38.71,56.9Z"/><path class="cls-1" d="M33.06,81.57a2.6,2.6,0,0,0,.54,1.78,1.87,1.87,0,0,0,2.75,0,2.66,2.66,0,0,0,.54-1.81,2.59,2.59,0,0,0-.52-1.78A1.78,1.78,0,0,0,35,79.18a1.75,1.75,0,0,0-1.39.6A2.57,2.57,0,0,0,33.06,81.57Zm-1.45,0a4.41,4.41,0,0,1,.32-1.77,3.09,3.09,0,0,1,.65-1,2.79,2.79,0,0,1,.89-.63A3.86,3.86,0,0,1,35,78a3.28,3.28,0,0,1,2.45,1,4.23,4.23,0,0,1,0,5.27,3.65,3.65,0,0,1-4.89,0A3.57,3.57,0,0,1,31.61,81.61ZM24.7,85V78.11h1.4v2.72h2.74V78.11h1.4V85h-1.4V82H26.1v3Z"/><path class="cls-1" d="M14.91,40a2.58,2.58,0,0,0,.55,1.79,1.88,1.88,0,0,0,2.75,0A2.63,2.63,0,0,0,18.75,40a2.58,2.58,0,0,0-.53-1.77,1.72,1.72,0,0,0-1.38-.59,1.8,1.8,0,0,0-1.4.59A2.66,2.66,0,0,0,14.91,40Zm-1.44,0a4.43,4.43,0,0,1,.32-1.78,3.18,3.18,0,0,1,.64-.95,2.65,2.65,0,0,1,.9-.62,3.67,3.67,0,0,1,1.49-.28,3.3,3.3,0,0,1,2.46.95,3.68,3.68,0,0,1,.92,2.65,3.62,3.62,0,0,1-.92,2.62,3.24,3.24,0,0,1-2.44.95,3.26,3.26,0,0,1-2.46-.94A3.58,3.58,0,0,1,13.47,40.08ZM6.56,43.5V36.57H8V39.3H10.7V36.57h1.4V43.5H10.7v-3H8v3Z"/><path d="M39.56,78.34a.64.64,0,0,1-.38-.12l-2.32-1.63a.66.66,0,1,1,.76-1.07l2.31,1.63a.65.65,0,0,1,.16.91A.62.62,0,0,1,39.56,78.34Z"/><path d="M40.84,75.92a.68.68,0,0,1-.38-.12l-1.75-1.24a.66.66,0,0,1-.16-.92.67.67,0,0,1,.92-.15l1.75,1.23a.66.66,0,0,1-.38,1.2Z"/><path d="M42.14,73.5a.66.66,0,0,1-.38-.12l-1.21-.85a.67.67,0,0,1-.16-.92.66.66,0,0,1,.92-.16l1.21.85a.66.66,0,0,1,.16.92A.68.68,0,0,1,42.14,73.5Z"/><path class="cls-1" d="M70.9,84.57V77.64h1.4v2.73H75V77.64h1.41v6.93H75v-3H72.3v3ZM64.3,81.1a2.6,2.6,0,0,0,.54,1.78,1.88,1.88,0,0,0,2.76,0,2.7,2.7,0,0,0,.53-1.81,2.61,2.61,0,0,0-.52-1.78,1.77,1.77,0,0,0-1.39-.58,1.74,1.74,0,0,0-1.39.59A2.64,2.64,0,0,0,64.3,81.1Zm-1.45.05a4.43,4.43,0,0,1,.32-1.78,3.21,3.21,0,0,1,.65-1,2.72,2.72,0,0,1,.9-.63,3.79,3.79,0,0,1,1.48-.27,3.27,3.27,0,0,1,2.46,1,4.29,4.29,0,0,1,0,5.27,3.63,3.63,0,0,1-4.9,0A3.56,3.56,0,0,1,62.85,81.15Z"/><path d="M61.69,77.93a.66.66,0,0,1-.4-1.19l2.26-1.69a.66.66,0,1,1,.79,1l-2.26,1.7A.73.73,0,0,1,61.69,77.93Z"/><path d="M60.35,75.59A.66.66,0,0,1,60,74.4l1.73-1.29a.66.66,0,0,1,.79,1l-1.73,1.29A.62.62,0,0,1,60.35,75.59Z"/><path d="M59,73.24a.65.65,0,0,1-.52-.26.66.66,0,0,1,.13-.92l1.19-.89a.66.66,0,0,1,.92.13.68.68,0,0,1-.14.93l-1.18.88A.66.66,0,0,1,59,73.24Z"/><polygon points="62.19 55.75 62.06 55.68 68.89 43.6 69.01 43.67 62.19 55.75"/><polygon class="cls-1" points="67.96 42.45 69.13 43.46 70.58 43.97 62.51 56.22 61.95 55.89 61.7 54.92 67.96 42.45"/><rect x="35.3" y="40.29" width="0.14" height="16.48" transform="translate(-16.63 18.5) rotate(-23.91)"/><polygon class="cls-1" points="30.65 41.41 33.4 40.22 39.02 55.19 38.71 56.24 38.11 56.5 30.65 41.41"/><polygon class="cls-1" points="80.53 45.42 80.53 38.49 81.89 38.49 84.73 43.12 84.73 38.49 86.03 38.49 86.03 45.42 84.62 45.42 81.83 40.9 81.83 45.42 80.53 45.42"/><path d="M69.12,44.12a.66.66,0,0,1-.06-1.32l9.73-1a.66.66,0,0,1,.14,1.31l-9.74,1Z"/><path d="M84.51,37.43l-.13,0a.65.65,0,0,1-.51-.78l1.87-8.85a.66.66,0,0,1,.78-.51.65.65,0,0,1,.51.78l-1.87,8.86A.66.66,0,0,1,84.51,37.43Z"/><path d="M86.39,28.57a.66.66,0,0,1-.33-.09L73.62,21.3a.66.66,0,0,1,.66-1.14l12.44,7.18a.66.66,0,0,1-.33,1.23Z"/><path d="M82.68,30.22a.66.66,0,0,1-.33-.09l-8.3-4.79a.66.66,0,0,1,.66-1.14L83,29a.66.66,0,0,1-.33,1.23Z"/><path d="M63.28,31a.64.64,0,0,1-.49-.22.66.66,0,0,1,.05-.93l10.67-9.61a.66.66,0,0,1,.88,1L63.72,30.83A.66.66,0,0,1,63.28,31Z"/><path d="M69.13,44.12a.67.67,0,0,1-.61-.39L62.68,30.61a.66.66,0,0,1,1.2-.54l5.85,13.12a.67.67,0,0,1-.34.87A.62.62,0,0,1,69.13,44.12Z"/><path d="M71.15,40.6a.67.67,0,0,1-.6-.39l-3.9-8.76a.66.66,0,0,1,.33-.87.67.67,0,0,1,.87.34l3.9,8.75a.66.66,0,0,1-.6.93Z"/><polygon class="cls-1" points="91.2 55.03 91.2 48.1 92.57 48.1 95.4 52.73 95.4 48.1 96.7 48.1 96.7 55.03 95.3 55.03 92.5 50.51 92.5 55.03 91.2 55.03"/><polygon class="cls-1" points="107.85 36.55 107.85 29.62 109.21 29.62 112.05 34.24 112.05 29.62 113.34 29.62 113.34 36.55 111.94 36.55 109.15 32.03 109.15 36.55 107.85 36.55"/><path d="M89.65,48.23a.66.66,0,0,1-.44-.16l-1.63-1.46a.66.66,0,0,1,.88-1l1.63,1.46a.65.65,0,0,1,0,.92A.64.64,0,0,1,89.65,48.23Z"/><path d="M99,50.62a.66.66,0,0,1-.62-.46.65.65,0,0,1,.42-.83l8.72-2.83a.66.66,0,1,1,.4,1.26l-8.71,2.82A.78.78,0,0,1,99,50.62Z"/><path d="M98,47.49a.65.65,0,0,1-.63-.45.66.66,0,0,1,.42-.83l6.9-2.24a.66.66,0,0,1,.41,1.25l-6.9,2.24Z"/><path d="M107.74,47.79l-.14,0a.65.65,0,0,1-.5-.78l1.73-8.19a.65.65,0,0,1,.78-.51.67.67,0,0,1,.51.78l-1.74,8.2A.65.65,0,0,1,107.74,47.79Z"/><path d="M106.29,29.75a.64.64,0,0,1-.44-.17L99.61,24a.66.66,0,1,1,.88-1l6.24,5.62a.65.65,0,0,1,0,.93A.64.64,0,0,1,106.29,29.75Z"/><path d="M104.09,32.19a.61.61,0,0,1-.44-.17l-4.83-4.35a.66.66,0,0,1,0-.93.65.65,0,0,1,.93,0l4.83,4.35a.65.65,0,0,1,0,.92A.64.64,0,0,1,104.09,32.19Z"/><path d="M86.39,28.57a.66.66,0,0,1-.21-1.28l13.67-4.44a.67.67,0,0,1,.83.42.66.66,0,0,1-.43.83L86.59,28.54A.69.69,0,0,1,86.39,28.57Z"/><path class="cls-1" d="M107.35,12.89V6h1.41V8.7h2.74V6h1.4v6.93h-1.4v-3h-2.74v3Zm-7.19,0V6h1.37l2.83,4.63V6h1.31v6.93h-1.41l-2.79-4.51v4.51Z"/><path class="cls-1" d="M117.52,14.31v.93H114a2.25,2.25,0,0,1,.34-1A6.15,6.15,0,0,1,115.49,13a7,7,0,0,0,.83-.85,1.07,1.07,0,0,0,.21-.61.69.69,0,0,0-.18-.51.68.68,0,0,0-.5-.18.66.66,0,0,0-.5.19,1,1,0,0,0-.21.62l-1-.1a1.64,1.64,0,0,1,.56-1.18,1.88,1.88,0,0,1,1.18-.36,1.71,1.71,0,0,1,1.2.41,1.4,1.4,0,0,1,.44,1,1.7,1.7,0,0,1-.13.67,2.83,2.83,0,0,1-.4.66,7,7,0,0,1-.64.66,7.12,7.12,0,0,0-.6.58,1.65,1.65,0,0,0-.21.27Z"/><path d="M100.05,24.13h-.14a.66.66,0,0,1-.5-.78l1.74-8.19a.66.66,0,1,1,1.29.28l-1.75,8.18A.64.64,0,0,1,100.05,24.13Z"/><path d="M32,41.47h0L22.12,41a.65.65,0,0,1-.62-.69.63.63,0,0,1,.69-.62l9.87.48a.67.67,0,0,1,.63.69A.66.66,0,0,1,32,41.47Z"/><path d="M70.93,63.4a.68.68,0,0,1-.33-.09.66.66,0,0,1-.24-.9l1.44-2.49a.66.66,0,0,1,1.14.66L71.5,63.07A.65.65,0,0,1,70.93,63.4Z"/><path d="M68.73,61.85a.63.63,0,0,1-.33-.09.65.65,0,0,1-.24-.9l1.19-2.07a.66.66,0,1,1,1.14.66L69.3,61.52A.68.68,0,0,1,68.73,61.85Z"/><path d="M66.52,60.3a.68.68,0,0,1-.33-.09.66.66,0,0,1-.24-.9l1-1.65a.66.66,0,0,1,.9-.25.67.67,0,0,1,.24.9l-1,1.66A.65.65,0,0,1,66.52,60.3Z"/><path d="M64.32,58.75a.66.66,0,0,1-.57-1l.72-1.24a.66.66,0,1,1,1.14.66l-.72,1.24A.67.67,0,0,1,64.32,58.75Z"/><polygon class="cls-1" points="83.94 73.72 83.94 66.79 85.3 66.79 88.14 71.42 88.14 66.79 89.44 66.79 89.44 73.72 88.03 73.72 85.24 69.2 85.24 73.72 83.94 73.72"/><path d="M83.45,65.17a.63.63,0,0,1-.33-.09L75.7,60.8a.65.65,0,0,1-.24-.9.66.66,0,0,1,.9-.24l7.41,4.28a.66.66,0,0,1,.25.9A.68.68,0,0,1,83.45,65.17Z"/><path d="M81.8,68a.66.66,0,0,1-.33-.09l-7.42-4.29a.66.66,0,1,1,.66-1.14l7.42,4.29a.66.66,0,0,1,.24.9A.65.65,0,0,1,81.8,68Z"/><path d="M80.16,70.86a.62.62,0,0,1-.32-.09l-7.43-4.28a.66.66,0,0,1,.65-1.14l7.43,4.28a.65.65,0,0,1,.24.9A.65.65,0,0,1,80.16,70.86Z"/><path class="cls-2" d="M23.24,103v-1.45H27v3.42a4.84,4.84,0,0,1-1.58.93,5.71,5.71,0,0,1-2.1.4,4.8,4.8,0,0,1-2.35-.56,3.62,3.62,0,0,1-1.5-1.62,5.19,5.19,0,0,1-.51-2.29,4.87,4.87,0,0,1,.57-2.38,3.73,3.73,0,0,1,1.64-1.6,4.39,4.39,0,0,1,2.06-.43,4.08,4.08,0,0,1,2.5.67,3.06,3.06,0,0,1,1.16,1.85l-1.73.33a1.74,1.74,0,0,0-.68-1,2,2,0,0,0-1.25-.37,2.36,2.36,0,0,0-1.81.72,3.07,3.07,0,0,0-.67,2.14,3.37,3.37,0,0,0,.68,2.29,2.27,2.27,0,0,0,1.78.77,2.88,2.88,0,0,0,1.1-.22,4,4,0,0,0,.94-.51V103Z"/><path class="cls-2" d="M28.14,103.33l1.69-.16a2,2,0,0,0,.61,1.24,1.85,1.85,0,0,0,1.26.4,2,2,0,0,0,1.26-.35,1.06,1.06,0,0,0,.43-.83.78.78,0,0,0-.18-.52,1.43,1.43,0,0,0-.62-.37c-.21-.07-.67-.2-1.39-.38a4.64,4.64,0,0,1-2-.85,2.22,2.22,0,0,1-.79-1.73,2.18,2.18,0,0,1,.37-1.22,2.38,2.38,0,0,1,1.07-.87,4.29,4.29,0,0,1,1.69-.3A3.61,3.61,0,0,1,34,98.1a2.52,2.52,0,0,1,.86,1.89l-1.74.08a1.45,1.45,0,0,0-.48-1,1.75,1.75,0,0,0-1.09-.29,2.05,2.05,0,0,0-1.19.31.64.64,0,0,0-.27.54.67.67,0,0,0,.25.52,4.68,4.68,0,0,0,1.6.57,8.56,8.56,0,0,1,1.87.62,2.5,2.5,0,0,1,1,.87,2.56,2.56,0,0,1,.34,1.37A2.5,2.5,0,0,1,33.55,106a4.83,4.83,0,0,1-1.87.32,3.68,3.68,0,0,1-2.5-.76A3.25,3.25,0,0,1,28.14,103.33Z"/><path class="cls-2" d="M36.38,103.83v-1.64h3.24v1.64Z"/><path class="cls-2" d="M43.44,106.12V104.4H39.93V103l3.72-5.45H45V103H46.1v1.45H45v1.72Zm0-3.17V100l-2,2.94Z"/><path class="cls-2" d="M50.12,106.12V104.4H46.6V103l3.73-5.45h1.38V103h1.07v1.45H51.71v1.72Zm0-3.17V100l-2,2.94Z"/><path class="cls-2" d="M57.77,106.12H56.13v-6.2A5.69,5.69,0,0,1,54,101.17v-1.5a4.54,4.54,0,0,0,1.4-.8,3,3,0,0,0,1-1.37h1.33Z"/><path class="cls-2" d="M60.26,103.92l1.64-.17a1.44,1.44,0,0,0,.42.88,1.14,1.14,0,0,0,.79.32,1.11,1.11,0,0,0,.88-.42,2,2,0,0,0,.35-1.26,1.78,1.78,0,0,0-.35-1.19,1.2,1.2,0,0,0-.92-.39,1.69,1.69,0,0,0-1.28.63l-1.33-.2.84-4.47h4.36v1.54H62.55l-.26,1.46a2.54,2.54,0,0,1,1.13-.27,2.44,2.44,0,0,1,1.85.79,2.86,2.86,0,0,1,.77,2.07,3.08,3.08,0,0,1-.62,1.89,2.72,2.72,0,0,1-2.33,1.14,2.85,2.85,0,0,1-1.93-.64A2.64,2.64,0,0,1,60.26,103.92Z"/><path class="cls-2" d="M72.47,104.59v1.53H66.7a4,4,0,0,1,.56-1.64,11,11,0,0,1,1.85-2.06A11.7,11.7,0,0,0,70.48,101a1.82,1.82,0,0,0,.34-1,1.14,1.14,0,0,0-.3-.85,1.24,1.24,0,0,0-1.64,0,1.59,1.59,0,0,0-.35,1L66.89,100a2.74,2.74,0,0,1,.92-2,3.13,3.13,0,0,1,1.94-.59,2.81,2.81,0,0,1,2,.68,2.25,2.25,0,0,1,.73,1.71,2.91,2.91,0,0,1-.21,1.1,4.51,4.51,0,0,1-.66,1.1,10.32,10.32,0,0,1-1.08,1.1c-.52.48-.84.79-1,1a3.13,3.13,0,0,0-.34.45Z"/><path class="cls-2" d="M76.81,106.12V104.4H73.3V103L77,97.5h1.39V103h1.06v1.45H78.41v1.72Zm0-3.17V100l-2,2.94Z"/></svg>