<svg xmlns="http://www.w3.org/2000/svg" width="16" height="16" viewBox="0 0 16 16"><defs><style>.a{fill:#212529;}</style></defs><path class="a" d="M15.305,7.316H13.96a5.992,5.992,0,0,0-1.513-3.322l.919-.921a.7.7,0,0,0-.991-.992l-.982.984a5.963,5.963,0,0,0-2.687-1.01V.72a.7.7,0,1,0-1.4,0V2.055A5.948,5.948,0,0,0,4.613,3.069l-.99-.991a.7.7,0,0,0-.991.992L3.561,4A5.989,5.989,0,0,0,2.052,7.316H.707a.7.7,0,0,0,0,1.4H2.052a5.977,5.977,0,0,0,1.008,2.69l-.985.987a.7.7,0,0,0,.5,1.2.7.7,0,0,0,.5-.205l.923-.924a5.966,5.966,0,0,0,3.317,1.516v1.335a.7.7,0,1,0,1.4,0V13.981a5.972,5.972,0,0,0,3.312-1.511l.926.927a.7.7,0,0,0,.991-.993l-.988-.988a5.968,5.968,0,0,0,1.013-2.7h1.345a.7.7,0,0,0,0-1.4Zm-7.26,5.3c-.014,0-.025-.008-.039-.008s-.025.007-.039.008a4.6,4.6,0,0,1,0-9.2c.014,0,.025.008.039.008s.025-.007.039-.008a4.6,4.6,0,0,1,0,9.2Z" transform="translate(-0.006 -0.018)"/><path class="a" d="M10.455,5.513a.7.7,0,0,0-.99,0L7.983,6.995,6.5,5.513a.7.7,0,0,0-.99.99L6.993,7.985,5.511,9.467a.7.7,0,0,0,.99.99L7.983,8.975l1.482,1.482a.7.7,0,0,0,.99-.99L8.973,7.985,10.455,6.5A.7.7,0,0,0,10.455,5.513Z" transform="translate(-0.006 -0.018)"/></svg>