<svg xmlns="http://www.w3.org/2000/svg" width="16" height="16" viewBox="0 0 16 16"><defs><style>.a{fill:#212529;}</style></defs><path class="a" d="M-6.695,7.316H-8.04A5.992,5.992,0,0,0-9.553,3.994l.919-.921a.7.7,0,0,0,0-.992.7.7,0,0,0-.991,0l-.982.984a5.963,5.963,0,0,0-2.687-1.01V.72a.7.7,0,0,0-.7-.7.7.7,0,0,0-.7.7V2.055a5.948,5.948,0,0,0-2.692,1.014l-.99-.991a.7.7,0,0,0-.991,0,.7.7,0,0,0,0,.992l.928.929a5.989,5.989,0,0,0-1.509,3.317h-1.345a.7.7,0,0,0-.7.7.7.7,0,0,0,.7.7h1.345a5.977,5.977,0,0,0,1.008,2.69l-.985.987a.7.7,0,0,0,0,.992.7.7,0,0,0,.5.205.7.7,0,0,0,.5-.205l.923-.924a5.966,5.966,0,0,0,3.317,1.516v1.335a.7.7,0,0,0,.7.7.7.7,0,0,0,.7-.7V13.981A5.972,5.972,0,0,0-9.981,12.47l.926.927a.7.7,0,0,0,.5.205.7.7,0,0,0,.5-.205.7.7,0,0,0,0-.993l-.988-.988A5.968,5.968,0,0,0-8.04,8.72h1.345a.7.7,0,0,0,.7-.7A.7.7,0,0,0-6.695,7.316Zm-7.26,5.3c-.014,0-.025-.008-.039-.008s-.025.007-.039.008a4.6,4.6,0,0,1-4.558-4.6,4.6,4.6,0,0,1,4.558-4.6c.014,0,.025.008.039.008s.025-.007.039-.008A4.6,4.6,0,0,1-9.4,8.018,4.6,4.6,0,0,1-13.955,12.618Z" transform="translate(21.994 -0.018)"/><path class="a" d="M-11.139,7.292H-12.2a.7.7,0,0,0-.612.362l-.447.807-.776-2.941A.7.7,0,0,0-14.659,5a.711.711,0,0,0-.695.414l-.835,1.878H-17.1a.7.7,0,0,0-.7.7.7.7,0,0,0,.7.7h1.371a.7.7,0,0,0,.639-.416l.211-.475.713,2.7a.7.7,0,0,0,.591.516.826.826,0,0,0,.086.005.7.7,0,0,0,.612-.361l1.092-1.972h.651a.7.7,0,0,0,.7-.7A.7.7,0,0,0-11.139,7.292Z" transform="translate(21.994 -0.018)"/></svg>